<?xml version="1.0" encoding="us-ascii" standalone="no"?><svg xmlns="http://www.w3.org/2000/svg" xmlns:xlink="http://www.w3.org/1999/xlink" contentStyleType="text/css" height="2084px" preserveAspectRatio="none" style="width:536px;height:2084px;background:#FFFFFF;" version="1.1" viewBox="0 0 536 2084" width="536px" zoomAndPan="magnify"><defs/><g><text fill="#000000" font-family="sans-serif" font-size="14" font-weight="bold" lengthAdjust="spacing" textLength="198.375" x="167.3125" y="34.5332">loop() - &#12513;&#12452;&#12531;&#12523;&#12540;&#12503;&#20966;&#29702;&#35443;&#32048;</text><ellipse cx="206.5" cy="58.6094" fill="#222222" rx="10" ry="10" style="stroke:#222222;stroke-width:1.0;"/><rect fill="#F1F1F1" height="50.1875" rx="12.5" ry="12.5" style="stroke:#181818;stroke-width:0.5;" width="104" x="154.5" y="88.6094"/><text fill="#000000" font-family="sans-serif" font-size="12" lengthAdjust="spacing" textLength="65" x="164.5" y="111.0664">M5.update()</text><text fill="#000000" font-family="sans-serif" font-size="12" lengthAdjust="spacing" textLength="84" x="164.5" y="126.1602">&#12508;&#12479;&#12531;&#29366;&#24907;&#26356;&#26032;</text><rect fill="none" height="389.4141" style="stroke:#000000;stroke-width:1.5;" width="400.5" x="124.5" y="148.7969"/><path d="M260.5,148.7969 L260.5,159.4063 L250.5,169.4063 L124.5,169.4063 " fill="none" style="stroke:#000000;stroke-width:1.5;"/><text fill="#000000" font-family="sans-serif" font-size="14" lengthAdjust="spacing" textLength="126" x="127.5" y="164.3301">&#12487;&#12540;&#12479;&#21454;&#38598;&#12501;&#12455;&#12540;&#12474;</text><path d="M290,190.1484 L290,207.5 L270,211.5 L290,215.5 L290,232.8516 A0,0 0 0 0 290,232.8516 L454,232.8516 A0,0 0 0 0 454,232.8516 L454,200.1484 L444,190.1484 L290,190.1484 A0,0 0 0 0 290,190.1484 " fill="#FEFFDD" style="stroke:#181818;stroke-width:0.5;"/><path d="M444,190.1484 L444,200.1484 L454,200.1484 L444,190.1484 " fill="#FEFFDD" style="stroke:#181818;stroke-width:0.5;"/><text fill="#000000" font-family="sans-serif" font-size="13" lengthAdjust="spacing" textLength="91" x="296" y="208.6436">&#35443;&#32048;&#12399;&#27425;&#12506;&#12540;&#12472;</text><text fill="#000000" font-family="sans-serif" font-size="13" lengthAdjust="spacing" textLength="143" x="296" y="224.9951">&#12300;&#12487;&#12540;&#12479;&#21454;&#38598;&#35443;&#32048;&#12301;&#21442;&#29031;</text><rect fill="#F1F1F1" height="50.1875" rx="12.5" ry="12.5" style="stroke:#181818;stroke-width:0.5;" width="127" x="143" y="186.4063"/><text fill="#000000" font-family="sans-serif" font-size="12" lengthAdjust="spacing" textLength="69" x="153" y="208.8633">updateBLE()</text><text fill="#000000" font-family="sans-serif" font-size="12" lengthAdjust="spacing" textLength="107" x="153" y="223.957">BLE&#28201;&#24230;&#12487;&#12540;&#12479;&#21463;&#20449;</text><path d="M291.5,260.3359 L291.5,277.6875 L271.5,281.6875 L291.5,285.6875 L291.5,303.0391 A0,0 0 0 0 291.5,303.0391 L455.5,303.0391 A0,0 0 0 0 455.5,303.0391 L455.5,270.3359 L445.5,260.3359 L291.5,260.3359 A0,0 0 0 0 291.5,260.3359 " fill="#FEFFDD" style="stroke:#181818;stroke-width:0.5;"/><path d="M445.5,260.3359 L445.5,270.3359 L455.5,270.3359 L445.5,260.3359 " fill="#FEFFDD" style="stroke:#181818;stroke-width:0.5;"/><text fill="#000000" font-family="sans-serif" font-size="13" lengthAdjust="spacing" textLength="91" x="297.5" y="278.8311">&#35443;&#32048;&#12399;&#27425;&#12506;&#12540;&#12472;</text><text fill="#000000" font-family="sans-serif" font-size="13" lengthAdjust="spacing" textLength="143" x="297.5" y="295.1826">&#12300;&#12487;&#12540;&#12479;&#21454;&#38598;&#35443;&#32048;&#12301;&#21442;&#29031;</text><rect fill="#F1F1F1" height="50.1875" rx="12.5" ry="12.5" style="stroke:#181818;stroke-width:0.5;" width="130" x="141.5" y="256.5938"/><text fill="#000000" font-family="sans-serif" font-size="12" lengthAdjust="spacing" textLength="72" x="151.5" y="279.0508">updateECU()</text><text fill="#000000" font-family="sans-serif" font-size="12" lengthAdjust="spacing" textLength="110" x="151.5" y="294.1445">ECU&#36208;&#34892;&#12487;&#12540;&#12479;&#21463;&#20449;</text><path d="M295.5,330.5234 L295.5,347.875 L275.5,351.875 L295.5,355.875 L295.5,373.2266 A0,0 0 0 0 295.5,373.2266 L459.5,373.2266 A0,0 0 0 0 459.5,373.2266 L459.5,340.5234 L449.5,330.5234 L295.5,330.5234 A0,0 0 0 0 295.5,330.5234 " fill="#FEFFDD" style="stroke:#181818;stroke-width:0.5;"/><path d="M449.5,330.5234 L449.5,340.5234 L459.5,340.5234 L449.5,330.5234 " fill="#FEFFDD" style="stroke:#181818;stroke-width:0.5;"/><text fill="#000000" font-family="sans-serif" font-size="13" lengthAdjust="spacing" textLength="91" x="301.5" y="349.0186">&#35443;&#32048;&#12399;&#27425;&#12506;&#12540;&#12472;</text><text fill="#000000" font-family="sans-serif" font-size="13" lengthAdjust="spacing" textLength="143" x="301.5" y="365.3701">&#12300;&#12487;&#12540;&#12479;&#21454;&#38598;&#35443;&#32048;&#12301;&#21442;&#29031;</text><rect fill="#F1F1F1" height="50.1875" rx="12.5" ry="12.5" style="stroke:#181818;stroke-width:0.5;" width="138" x="137.5" y="326.7813"/><text fill="#000000" font-family="sans-serif" font-size="12" lengthAdjust="spacing" textLength="80" x="147.5" y="349.2383">updateGNSS()</text><text fill="#000000" font-family="sans-serif" font-size="12" lengthAdjust="spacing" textLength="118" x="147.5" y="364.332">GNSS&#20301;&#32622;&#12539;&#26178;&#21051;&#21463;&#20449;</text><path d="M294,392.5352 L294,418.0625 L274,422.0625 L294,426.0625 L294,451.5898 A0,0 0 0 0 294,451.5898 L515,451.5898 A0,0 0 0 0 515,451.5898 L515,402.5352 L505,392.5352 L294,392.5352 A0,0 0 0 0 294,392.5352 " fill="#FEFFDD" style="stroke:#181818;stroke-width:0.5;"/><path d="M505,392.5352 L505,402.5352 L515,402.5352 L505,392.5352 " fill="#FEFFDD" style="stroke:#181818;stroke-width:0.5;"/><text fill="#000000" font-family="sans-serif" font-size="13" lengthAdjust="spacing" textLength="66" x="300" y="411.0303">- HTTP&#20778;&#20808;</text><text fill="#000000" font-family="sans-serif" font-size="13" lengthAdjust="spacing" textLength="200" x="300" y="427.3818">- &#22833;&#25943;&#26178; HTTPS &#12408;&#12501;&#12457;&#12540;&#12523;&#12496;&#12483;&#12463;</text><text fill="#000000" font-family="sans-serif" font-size="13" lengthAdjust="spacing" textLength="175" x="300" y="443.7334">- &#21462;&#24471;&#19981;&#21487;&#26178;&#12399;GNSS&#39640;&#24230;&#21033;&#29992;</text><rect fill="#F1F1F1" height="50.1875" rx="12.5" ry="12.5" style="stroke:#181818;stroke-width:0.5;" width="135" x="139" y="396.9688"/><text fill="#000000" font-family="sans-serif" font-size="12" lengthAdjust="spacing" textLength="115" x="149" y="419.4258">updateGsiElevation()</text><text fill="#000000" font-family="sans-serif" font-size="12" lengthAdjust="spacing" textLength="68" x="149" y="434.5195">GSI&#27161;&#39640;&#21462;&#24471;</text><path d="M298.5,467.1563 L298.5,492.6836 L278.5,496.6836 L298.5,500.6836 L298.5,526.2109 A0,0 0 0 0 298.5,526.2109 L506.5,526.2109 A0,0 0 0 0 506.5,526.2109 L506.5,477.1563 L496.5,467.1563 L298.5,467.1563 A0,0 0 0 0 298.5,467.1563 " fill="#FEFFDD" style="stroke:#181818;stroke-width:0.5;"/><path d="M496.5,467.1563 L496.5,477.1563 L506.5,477.1563 L496.5,467.1563 " fill="#FEFFDD" style="stroke:#181818;stroke-width:0.5;"/><text fill="#000000" font-family="sans-serif" font-size="13" lengthAdjust="spacing" textLength="187" x="304.5" y="485.6514">- &#20302;&#36895;&#26178;&#12399;IMU&#37467;&#30452;&#21152;&#36895;&#24230;&#12434;&#20941;&#32080;</text><text fill="#000000" font-family="sans-serif" font-size="13" lengthAdjust="spacing" textLength="173" x="304.5" y="502.0029">- GSI&#20445;&#25345;&#35251;&#28204;&#12391;&#12489;&#12522;&#12501;&#12488;&#25233;&#21046;</text><text fill="#000000" font-family="sans-serif" font-size="13" lengthAdjust="spacing" textLength="160" x="304.5" y="518.3545">- GSI&#20054;&#38626;&#26178;&#12399;&#24375;&#21046;&#20877;&#12525;&#12483;&#12463;</text><rect fill="#F1F1F1" height="50.1875" rx="12.5" ry="12.5" style="stroke:#181818;stroke-width:0.5;" width="144" x="134.5" y="471.5898"/><text fill="#000000" font-family="sans-serif" font-size="12" lengthAdjust="spacing" textLength="124" x="144.5" y="494.0469">updateAltitudeFusion()</text><text fill="#000000" font-family="sans-serif" font-size="12" lengthAdjust="spacing" textLength="95" x="144.5" y="509.1406">&#39640;&#24230;&#34701;&#21512;EKF&#26356;&#26032;</text><rect fill="none" height="118.0156" style="stroke:#000000;stroke-width:1.5;" width="319" x="143" y="548.2109"/><path d="M209,548.2109 L209,558.8203 L199,568.8203 L143,568.8203 " fill="none" style="stroke:#000000;stroke-width:1.5;"/><text fill="#000000" font-family="sans-serif" font-size="14" lengthAdjust="spacing" textLength="56" x="146" y="563.7441">&#34920;&#31034;&#26356;&#26032;</text><path d="M280,578.8203 L280,612.5234 L260,616.5234 L280,620.5234 L280,654.2266 A0,0 0 0 0 280,654.2266 L452,654.2266 A0,0 0 0 0 452,654.2266 L452,588.8203 L442,578.8203 L280,578.8203 A0,0 0 0 0 280,578.8203 " fill="#FEFFDD" style="stroke:#181818;stroke-width:0.5;"/><path d="M442,578.8203 L442,588.8203 L452,588.8203 L442,578.8203 " fill="#FEFFDD" style="stroke:#181818;stroke-width:0.5;"/><text fill="#000000" font-family="sans-serif" font-size="13" lengthAdjust="spacing" textLength="151" x="286" y="597.3154">- &#12508;&#12479;&#12531;&#12391;&#34920;&#31034;&#12514;&#12540;&#12489;&#20999;&#26367;</text><text fill="#000000" font-family="sans-serif" font-size="13" lengthAdjust="spacing" textLength="86" x="286" y="613.667">- &#25509;&#32154;&#29366;&#27841;&#34920;&#31034;</text><text fill="#000000" font-family="sans-serif" font-size="13" lengthAdjust="spacing" textLength="99" x="286" y="630.0186">- &#36208;&#34892;&#12487;&#12540;&#12479;&#34920;&#31034;</text><text fill="#000000" font-family="sans-serif" font-size="13" lengthAdjust="spacing" textLength="99" x="286" y="646.3701">- &#12496;&#12540;&#12464;&#12521;&#12501;&#25551;&#30011;</text><rect fill="#F1F1F1" height="50.1875" rx="12.5" ry="12.5" style="stroke:#181818;stroke-width:0.5;" width="107" x="153" y="591.4297"/><text fill="#000000" font-family="sans-serif" font-size="12" lengthAdjust="spacing" textLength="87" x="163" y="613.8867">updateDisplay()</text><text fill="#000000" font-family="sans-serif" font-size="12" lengthAdjust="spacing" textLength="73" x="163" y="628.9805">LCD&#30011;&#38754;&#26356;&#26032;</text><rect fill="none" height="1284.9727" style="stroke:#000000;stroke-width:1.5;" width="430" x="11" y="676.2266"/><path d="M217,676.2266 L217,686.8359 L207,696.8359 L11,696.8359 " fill="none" style="stroke:#000000;stroke-width:1.5;"/><text fill="#000000" font-family="sans-serif" font-size="14" lengthAdjust="spacing" textLength="196" x="14" y="691.7598">&#23450;&#26399;&#20986;&#21147;&#20966;&#29702; (&#12479;&#12452;&#12511;&#12531;&#12464;&#21046;&#24481;)</text><rect fill="#F1F1F1" height="50.1875" rx="12.5" ry="12.5" style="stroke:#181818;stroke-width:0.5;" width="152" x="130.5" y="762.7539"/><text fill="#000000" font-family="sans-serif" font-size="12" lengthAdjust="spacing" textLength="114" x="140.5" y="785.2109">updateSerialOutput()</text><text fill="#000000" font-family="sans-serif" font-size="12" lengthAdjust="spacing" textLength="132" x="140.5" y="800.3047">CSV&#24418;&#24335;&#12391;&#12471;&#12522;&#12450;&#12523;&#20986;&#21147;</text><rect fill="#F1F1F1" height="35.0938" rx="12.5" ry="12.5" style="stroke:#181818;stroke-width:0.5;" width="113" x="150" y="842.8945"/><text fill="#000000" font-family="sans-serif" font-size="12" lengthAdjust="spacing" textLength="93" x="160" y="865.3516">t_Serial = millis()</text><polygon fill="#F1F1F1" points="137.5,713.8359,275.5,713.8359,287.5,725.8359,275.5,737.8359,137.5,737.8359,125.5,725.8359,137.5,713.8359" style="stroke:#181818;stroke-width:0.5;"/><text fill="#000000" font-family="sans-serif" font-size="11" lengthAdjust="spacing" textLength="18" x="210.5" y="749.2549">yes</text><text fill="#000000" font-family="sans-serif" font-size="11" lengthAdjust="spacing" textLength="138" x="137.5" y="730.3369">millis() - t_Serial &gt;= 1000ms?</text><text fill="#000000" font-family="sans-serif" font-size="11" lengthAdjust="spacing" textLength="12" x="287.5" y="723.4189">no</text><polygon fill="#F1F1F1" points="206.5,897.9883,218.5,909.9883,206.5,921.9883,194.5,909.9883,206.5,897.9883" style="stroke:#181818;stroke-width:0.5;"/><rect fill="#F1F1F1" height="50.1875" rx="12.5" ry="12.5" style="stroke:#181818;stroke-width:0.5;" width="133" x="140" y="1039.8242"/><text fill="#000000" font-family="sans-serif" font-size="12" lengthAdjust="spacing" textLength="84" x="150" y="1062.2813">updateSDLog()</text><text fill="#000000" font-family="sans-serif" font-size="12" lengthAdjust="spacing" textLength="113" x="150" y="1077.375">SD&#12459;&#12540;&#12489;&#12408;CSV&#35352;&#37682;</text><rect fill="#F1F1F1" height="35.0938" rx="12.5" ry="12.5" style="stroke:#181818;stroke-width:0.5;" width="98" x="157.5" y="1119.9648"/><text fill="#000000" font-family="sans-serif" font-size="12" lengthAdjust="spacing" textLength="78" x="167.5" y="1142.4219">t_SD = millis()</text><polygon fill="#F1F1F1" points="144,990.9063,269,990.9063,281,1002.9063,269,1014.9063,144,1014.9063,132,1002.9063,144,990.9063" style="stroke:#181818;stroke-width:0.5;"/><text fill="#000000" font-family="sans-serif" font-size="11" lengthAdjust="spacing" textLength="18" x="210.5" y="1026.3252">yes</text><text fill="#000000" font-family="sans-serif" font-size="11" lengthAdjust="spacing" textLength="125" x="144" y="1007.4072">millis() - t_SD &gt;= 1000ms?</text><text fill="#000000" font-family="sans-serif" font-size="11" lengthAdjust="spacing" textLength="12" x="281" y="1000.4893">no</text><polygon fill="#F1F1F1" points="206.5,1175.0586,218.5,1187.0586,206.5,1199.0586,194.5,1187.0586,206.5,1175.0586" style="stroke:#181818;stroke-width:0.5;"/><polygon fill="#F1F1F1" points="180,941.9883,233,941.9883,245,953.9883,233,965.9883,180,965.9883,168,953.9883,180,941.9883" style="stroke:#181818;stroke-width:0.5;"/><text fill="#000000" font-family="sans-serif" font-size="11" lengthAdjust="spacing" textLength="18" x="210.5" y="977.4072">yes</text><text fill="#000000" font-family="sans-serif" font-size="11" lengthAdjust="spacing" textLength="53" x="180" y="958.4893">LOGGING?</text><text fill="#000000" font-family="sans-serif" font-size="11" lengthAdjust="spacing" textLength="12" x="245" y="951.5713">no</text><polygon fill="#F1F1F1" points="206.5,1219.0586,218.5,1231.0586,206.5,1243.0586,194.5,1231.0586,206.5,1219.0586" style="stroke:#181818;stroke-width:0.5;"/><polygon fill="#F1F1F1" points="169.5,1311.9766,243.5,1311.9766,255.5,1323.9766,243.5,1335.9766,169.5,1335.9766,157.5,1323.9766,169.5,1311.9766" style="stroke:#181818;stroke-width:0.5;"/><text fill="#000000" font-family="sans-serif" font-size="11" lengthAdjust="spacing" textLength="74" x="169.5" y="1328.4775">worktime == 0?</text><text fill="#000000" font-family="sans-serif" font-size="11" lengthAdjust="spacing" textLength="57" x="100.5" y="1321.5596">yes: &#36208;&#34892;&#21069;</text><text fill="#000000" font-family="sans-serif" font-size="11" lengthAdjust="spacing" textLength="51" x="255.5" y="1321.5596">no: &#36208;&#34892;&#20013;</text><rect fill="#F1F1F1" height="50.1875" rx="12.5" ry="12.5" style="stroke:#181818;stroke-width:0.5;" width="137" x="39" y="1394.8945"/><text fill="#000000" font-family="sans-serif" font-size="12" lengthAdjust="spacing" textLength="78" x="49" y="1417.3516">updateMQTT()</text><text fill="#000000" font-family="sans-serif" font-size="12" lengthAdjust="spacing" textLength="117" x="49" y="1432.4453">JSON&#36865;&#20449; (10&#31186;&#38291;&#38548;)</text><rect fill="#F1F1F1" height="35.0938" rx="12.5" ry="12.5" style="stroke:#181818;stroke-width:0.5;" width="113" x="51" y="1475.0352"/><text fill="#000000" font-family="sans-serif" font-size="12" lengthAdjust="spacing" textLength="93" x="61" y="1497.4922">t_MQTT = millis()</text><polygon fill="#F1F1F1" points="35,1345.9766,180,1345.9766,192,1357.9766,180,1369.9766,35,1369.9766,23,1357.9766,35,1345.9766" style="stroke:#181818;stroke-width:0.5;"/><text fill="#000000" font-family="sans-serif" font-size="11" lengthAdjust="spacing" textLength="18" x="111.5" y="1381.3955">yes</text><text fill="#000000" font-family="sans-serif" font-size="11" lengthAdjust="spacing" textLength="145" x="35" y="1362.4775">millis() - t_MQTT &gt;= 10000ms?</text><text fill="#000000" font-family="sans-serif" font-size="11" lengthAdjust="spacing" textLength="12" x="192" y="1355.5596">no</text><polygon fill="#F1F1F1" points="107.5,1530.1289,119.5,1542.1289,107.5,1554.1289,95.5,1542.1289,107.5,1530.1289" style="stroke:#181818;stroke-width:0.5;"/><rect fill="#F1F1F1" height="50.1875" rx="12.5" ry="12.5" style="stroke:#181818;stroke-width:0.5;" width="130" x="240.5" y="1394.8945"/><text fill="#000000" font-family="sans-serif" font-size="12" lengthAdjust="spacing" textLength="78" x="250.5" y="1417.3516">updateMQTT()</text><text fill="#000000" font-family="sans-serif" font-size="12" lengthAdjust="spacing" textLength="110" x="250.5" y="1432.4453">JSON&#36865;&#20449; (1&#31186;&#38291;&#38548;)</text><rect fill="#F1F1F1" height="35.0938" rx="12.5" ry="12.5" style="stroke:#181818;stroke-width:0.5;" width="113" x="249" y="1475.0352"/><text fill="#000000" font-family="sans-serif" font-size="12" lengthAdjust="spacing" textLength="93" x="259" y="1497.4922">t_MQTT = millis()</text><polygon fill="#F1F1F1" points="236,1345.9766,375,1345.9766,387,1357.9766,375,1369.9766,236,1369.9766,224,1357.9766,236,1345.9766" style="stroke:#181818;stroke-width:0.5;"/><text fill="#000000" font-family="sans-serif" font-size="11" lengthAdjust="spacing" textLength="18" x="309.5" y="1381.3955">yes</text><text fill="#000000" font-family="sans-serif" font-size="11" lengthAdjust="spacing" textLength="139" x="236" y="1362.4775">millis() - t_MQTT &gt;= 1000ms?</text><text fill="#000000" font-family="sans-serif" font-size="11" lengthAdjust="spacing" textLength="12" x="387" y="1355.5596">no</text><polygon fill="#F1F1F1" points="305.5,1530.1289,317.5,1542.1289,305.5,1554.1289,293.5,1542.1289,305.5,1530.1289" style="stroke:#181818;stroke-width:0.5;"/><polygon fill="#F1F1F1" points="206.5,1560.1289,218.5,1572.1289,206.5,1584.1289,194.5,1572.1289,206.5,1560.1289" style="stroke:#181818;stroke-width:0.5;"/><polygon fill="#F1F1F1" points="177.5,1263.0586,235.5,1263.0586,247.5,1275.0586,235.5,1287.0586,177.5,1287.0586,165.5,1275.0586,177.5,1263.0586" style="stroke:#181818;stroke-width:0.5;"/><text fill="#000000" font-family="sans-serif" font-size="11" lengthAdjust="spacing" textLength="18" x="210.5" y="1298.4775">yes</text><text fill="#000000" font-family="sans-serif" font-size="11" lengthAdjust="spacing" textLength="58" x="177.5" y="1279.5596">MQTTpush?</text><text fill="#000000" font-family="sans-serif" font-size="11" lengthAdjust="spacing" textLength="12" x="247.5" y="1272.6416">no</text><polygon fill="#F1F1F1" points="206.5,1604.1289,218.5,1616.1289,206.5,1628.1289,194.5,1616.1289,206.5,1604.1289" style="stroke:#181818;stroke-width:0.5;"/><rect fill="#F1F1F1" height="50.1875" rx="12.5" ry="12.5" style="stroke:#181818;stroke-width:0.5;" width="111" x="151" y="1745.9648"/><text fill="#000000" font-family="sans-serif" font-size="12" lengthAdjust="spacing" textLength="91" x="161" y="1768.4219">updateAmbient()</text><text fill="#000000" font-family="sans-serif" font-size="12" lengthAdjust="spacing" textLength="60" x="161" y="1783.5156">&#12487;&#12540;&#12479;&#36865;&#20449;</text><rect fill="#F1F1F1" height="35.0938" rx="12.5" ry="12.5" style="stroke:#181818;stroke-width:0.5;" width="106" x="153.5" y="1826.1055"/><text fill="#000000" font-family="sans-serif" font-size="12" lengthAdjust="spacing" textLength="86" x="163.5" y="1848.5625">t_amb = millis()</text><polygon fill="#F1F1F1" points="138,1697.0469,275,1697.0469,287,1709.0469,275,1721.0469,138,1721.0469,126,1709.0469,138,1697.0469" style="stroke:#181818;stroke-width:0.5;"/><text fill="#000000" font-family="sans-serif" font-size="11" lengthAdjust="spacing" textLength="18" x="210.5" y="1732.4658">yes</text><text fill="#000000" font-family="sans-serif" font-size="11" lengthAdjust="spacing" textLength="137" x="138" y="1713.5479">millis() - t_amb &gt;= 10000ms?</text><text fill="#000000" font-family="sans-serif" font-size="11" lengthAdjust="spacing" textLength="12" x="287" y="1706.6299">no</text><polygon fill="#F1F1F1" points="206.5,1881.1992,218.5,1893.1992,206.5,1905.1992,194.5,1893.1992,206.5,1881.1992" style="stroke:#181818;stroke-width:0.5;"/><polygon fill="#F1F1F1" points="173,1648.1289,240,1648.1289,252,1660.1289,240,1672.1289,173,1672.1289,161,1660.1289,173,1648.1289" style="stroke:#181818;stroke-width:0.5;"/><text fill="#000000" font-family="sans-serif" font-size="11" lengthAdjust="spacing" textLength="18" x="210.5" y="1683.5479">yes</text><text fill="#000000" font-family="sans-serif" font-size="11" lengthAdjust="spacing" textLength="67" x="173" y="1664.6299">ambientpush?</text><text fill="#000000" font-family="sans-serif" font-size="11" lengthAdjust="spacing" textLength="12" x="252" y="1657.7119">no</text><polygon fill="#F1F1F1" points="206.5,1925.1992,218.5,1937.1992,206.5,1949.1992,194.5,1937.1992,206.5,1925.1992" style="stroke:#181818;stroke-width:0.5;"/><path d="M266.5,1984.9414 L266.5,2002.293 L246.5,2006.293 L266.5,2010.293 L266.5,2027.6445 A0,0 0 0 0 266.5,2027.6445 L508.5,2027.6445 A0,0 0 0 0 508.5,2027.6445 L508.5,1994.9414 L498.5,1984.9414 L266.5,1984.9414 A0,0 0 0 0 266.5,1984.9414 " fill="#FEFFDD" style="stroke:#181818;stroke-width:0.5;"/><path d="M498.5,1984.9414 L498.5,1994.9414 L508.5,1994.9414 L498.5,1984.9414 " fill="#FEFFDD" style="stroke:#181818;stroke-width:0.5;"/><text fill="#000000" font-family="sans-serif" font-size="13" lengthAdjust="spacing" textLength="169" x="272.5" y="2003.4365">&#12523;&#12540;&#12503;&#12399;&#32153;&#32154;&#30340;&#12395;&#23455;&#34892;&#12373;&#12428;&#12289;</text><text fill="#000000" font-family="sans-serif" font-size="13" lengthAdjust="spacing" textLength="221" x="272.5" y="2019.7881">&#21508;&#20966;&#29702;&#12399;&#35373;&#23450;&#12373;&#12428;&#12383;&#38291;&#38548;&#12391;&#23455;&#34892;&#12373;&#12428;&#12427;</text><rect fill="#F1F1F1" height="50.1875" rx="12.5" ry="12.5" style="stroke:#181818;stroke-width:0.5;" width="80" x="166.5" y="1981.1992"/><text fill="#000000" font-family="sans-serif" font-size="12" lengthAdjust="spacing" textLength="51" x="176.5" y="2003.6563">delay(10)</text><text fill="#000000" font-family="sans-serif" font-size="12" lengthAdjust="spacing" textLength="60" x="176.5" y="2018.75">&#12523;&#12540;&#12503;&#35519;&#25972;</text><ellipse cx="206.5" cy="2062.3867" fill="none" rx="11" ry="11" style="stroke:#222222;stroke-width:1.0;"/><ellipse cx="206.5" cy="2062.3867" fill="#222222" rx="6" ry="6" style="stroke:#222222;stroke-width:1.0;"/><line style="stroke:#181818;stroke-width:1.0;" x1="206.5" x2="206.5" y1="68.6094" y2="88.6094"/><polygon fill="#181818" points="202.5,78.6094,206.5,88.6094,210.5,78.6094,206.5,82.6094" style="stroke:#181818;stroke-width:1.0;"/><line style="stroke:#181818;stroke-width:1.0;" x1="206.5" x2="206.5" y1="236.5938" y2="256.5938"/><polygon fill="#181818" points="202.5,246.5938,206.5,256.5938,210.5,246.5938,206.5,250.5938" style="stroke:#181818;stroke-width:1.0;"/><line style="stroke:#181818;stroke-width:1.0;" x1="206.5" x2="206.5" y1="306.7813" y2="326.7813"/><polygon fill="#181818" points="202.5,316.7813,206.5,326.7813,210.5,316.7813,206.5,320.7813" style="stroke:#181818;stroke-width:1.0;"/><line style="stroke:#181818;stroke-width:1.0;" x1="206.5" x2="206.5" y1="376.9688" y2="396.9688"/><polygon fill="#181818" points="202.5,386.9688,206.5,396.9688,210.5,386.9688,206.5,390.9688" style="stroke:#181818;stroke-width:1.0;"/><line style="stroke:#181818;stroke-width:1.0;" x1="206.5" x2="206.5" y1="447.1563" y2="471.5898"/><polygon fill="#181818" points="202.5,461.5898,206.5,471.5898,210.5,461.5898,206.5,465.5898" style="stroke:#181818;stroke-width:1.0;"/><line style="stroke:#181818;stroke-width:1.0;" x1="206.5" x2="206.5" y1="138.7969" y2="186.4063"/><polygon fill="#181818" points="202.5,176.4063,206.5,186.4063,210.5,176.4063,206.5,180.4063" style="stroke:#181818;stroke-width:1.0;"/><line style="stroke:#181818;stroke-width:1.0;" x1="206.5" x2="206.5" y1="521.7773" y2="591.4297"/><polygon fill="#181818" points="202.5,581.4297,206.5,591.4297,210.5,581.4297,206.5,585.4297" style="stroke:#181818;stroke-width:1.0;"/><line style="stroke:#181818;stroke-width:1.0;" x1="206.5" x2="206.5" y1="812.9414" y2="842.8945"/><polygon fill="#181818" points="202.5,832.8945,206.5,842.8945,210.5,832.8945,206.5,836.8945" style="stroke:#181818;stroke-width:1.0;"/><line style="stroke:#181818;stroke-width:1.0;" x1="206.5" x2="206.5" y1="737.8359" y2="762.7539"/><polygon fill="#181818" points="202.5,752.7539,206.5,762.7539,210.5,752.7539,206.5,756.7539" style="stroke:#181818;stroke-width:1.0;"/><line style="stroke:#181818;stroke-width:1.0;" x1="287.5" x2="299.5" y1="725.8359" y2="725.8359"/><polygon fill="#181818" points="295.5,812.8945,299.5,822.8945,303.5,812.8945,299.5,816.8945" style="stroke:#181818;stroke-width:1.0;"/><line style="stroke:#181818;stroke-width:1.0;" x1="299.5" x2="299.5" y1="725.8359" y2="909.9883"/><line style="stroke:#181818;stroke-width:1.0;" x1="299.5" x2="218.5" y1="909.9883" y2="909.9883"/><polygon fill="#181818" points="228.5,905.9883,218.5,909.9883,228.5,913.9883,224.5,909.9883" style="stroke:#181818;stroke-width:1.0;"/><line style="stroke:#181818;stroke-width:1.0;" x1="206.5" x2="206.5" y1="877.9883" y2="897.9883"/><polygon fill="#181818" points="202.5,887.9883,206.5,897.9883,210.5,887.9883,206.5,891.9883" style="stroke:#181818;stroke-width:1.0;"/><line style="stroke:#181818;stroke-width:1.0;" x1="206.5" x2="206.5" y1="1090.0117" y2="1119.9648"/><polygon fill="#181818" points="202.5,1109.9648,206.5,1119.9648,210.5,1109.9648,206.5,1113.9648" style="stroke:#181818;stroke-width:1.0;"/><line style="stroke:#181818;stroke-width:1.0;" x1="206.5" x2="206.5" y1="1014.9063" y2="1039.8242"/><polygon fill="#181818" points="202.5,1029.8242,206.5,1039.8242,210.5,1029.8242,206.5,1033.8242" style="stroke:#181818;stroke-width:1.0;"/><line style="stroke:#181818;stroke-width:1.0;" x1="281" x2="293" y1="1002.9063" y2="1002.9063"/><polygon fill="#181818" points="289,1089.9648,293,1099.9648,297,1089.9648,293,1093.9648" style="stroke:#181818;stroke-width:1.0;"/><line style="stroke:#181818;stroke-width:1.0;" x1="293" x2="293" y1="1002.9063" y2="1187.0586"/><line style="stroke:#181818;stroke-width:1.0;" x1="293" x2="218.5" y1="1187.0586" y2="1187.0586"/><polygon fill="#181818" points="228.5,1183.0586,218.5,1187.0586,228.5,1191.0586,224.5,1187.0586" style="stroke:#181818;stroke-width:1.0;"/><line style="stroke:#181818;stroke-width:1.0;" x1="206.5" x2="206.5" y1="1155.0586" y2="1175.0586"/><polygon fill="#181818" points="202.5,1165.0586,206.5,1175.0586,210.5,1165.0586,206.5,1169.0586" style="stroke:#181818;stroke-width:1.0;"/><line style="stroke:#181818;stroke-width:1.0;" x1="206.5" x2="206.5" y1="965.9883" y2="990.9063"/><polygon fill="#181818" points="202.5,980.9063,206.5,990.9063,210.5,980.9063,206.5,984.9063" style="stroke:#181818;stroke-width:1.0;"/><line style="stroke:#181818;stroke-width:1.0;" x1="245" x2="305" y1="953.9883" y2="953.9883"/><polygon fill="#181818" points="301,1089.9648,305,1099.9648,309,1089.9648,305,1093.9648" style="stroke:#181818;stroke-width:1.0;"/><line style="stroke:#181818;stroke-width:1.0;" x1="305" x2="305" y1="953.9883" y2="1231.0586"/><line style="stroke:#181818;stroke-width:1.0;" x1="305" x2="218.5" y1="1231.0586" y2="1231.0586"/><polygon fill="#181818" points="228.5,1227.0586,218.5,1231.0586,228.5,1235.0586,224.5,1231.0586" style="stroke:#181818;stroke-width:1.0;"/><line style="stroke:#181818;stroke-width:1.0;" x1="206.5" x2="206.5" y1="1199.0586" y2="1219.0586"/><polygon fill="#181818" points="202.5,1209.0586,206.5,1219.0586,210.5,1209.0586,206.5,1213.0586" style="stroke:#181818;stroke-width:1.0;"/><line style="stroke:#181818;stroke-width:1.0;" x1="206.5" x2="206.5" y1="921.9883" y2="941.9883"/><polygon fill="#181818" points="202.5,931.9883,206.5,941.9883,210.5,931.9883,206.5,935.9883" style="stroke:#181818;stroke-width:1.0;"/><line style="stroke:#181818;stroke-width:1.0;" x1="107.5" x2="107.5" y1="1445.082" y2="1475.0352"/><polygon fill="#181818" points="103.5,1465.0352,107.5,1475.0352,111.5,1465.0352,107.5,1469.0352" style="stroke:#181818;stroke-width:1.0;"/><line style="stroke:#181818;stroke-width:1.0;" x1="107.5" x2="107.5" y1="1369.9766" y2="1394.8945"/><polygon fill="#181818" points="103.5,1384.8945,107.5,1394.8945,111.5,1384.8945,107.5,1388.8945" style="stroke:#181818;stroke-width:1.0;"/><line style="stroke:#181818;stroke-width:1.0;" x1="192" x2="204" y1="1357.9766" y2="1357.9766"/><polygon fill="#181818" points="200,1445.0352,204,1455.0352,208,1445.0352,204,1449.0352" style="stroke:#181818;stroke-width:1.0;"/><line style="stroke:#181818;stroke-width:1.0;" x1="204" x2="204" y1="1357.9766" y2="1542.1289"/><line style="stroke:#181818;stroke-width:1.0;" x1="204" x2="119.5" y1="1542.1289" y2="1542.1289"/><polygon fill="#181818" points="129.5,1538.1289,119.5,1542.1289,129.5,1546.1289,125.5,1542.1289" style="stroke:#181818;stroke-width:1.0;"/><line style="stroke:#181818;stroke-width:1.0;" x1="107.5" x2="107.5" y1="1510.1289" y2="1530.1289"/><polygon fill="#181818" points="103.5,1520.1289,107.5,1530.1289,111.5,1520.1289,107.5,1524.1289" style="stroke:#181818;stroke-width:1.0;"/><line style="stroke:#181818;stroke-width:1.0;" x1="305.5" x2="305.5" y1="1445.082" y2="1475.0352"/><polygon fill="#181818" points="301.5,1465.0352,305.5,1475.0352,309.5,1465.0352,305.5,1469.0352" style="stroke:#181818;stroke-width:1.0;"/><line style="stroke:#181818;stroke-width:1.0;" x1="305.5" x2="305.5" y1="1369.9766" y2="1394.8945"/><polygon fill="#181818" points="301.5,1384.8945,305.5,1394.8945,309.5,1384.8945,305.5,1388.8945" style="stroke:#181818;stroke-width:1.0;"/><line style="stroke:#181818;stroke-width:1.0;" x1="387" x2="399" y1="1357.9766" y2="1357.9766"/><polygon fill="#181818" points="395,1445.0352,399,1455.0352,403,1445.0352,399,1449.0352" style="stroke:#181818;stroke-width:1.0;"/><line style="stroke:#181818;stroke-width:1.0;" x1="399" x2="399" y1="1357.9766" y2="1542.1289"/><line style="stroke:#181818;stroke-width:1.0;" x1="399" x2="317.5" y1="1542.1289" y2="1542.1289"/><polygon fill="#181818" points="327.5,1538.1289,317.5,1542.1289,327.5,1546.1289,323.5,1542.1289" style="stroke:#181818;stroke-width:1.0;"/><line style="stroke:#181818;stroke-width:1.0;" x1="305.5" x2="305.5" y1="1510.1289" y2="1530.1289"/><polygon fill="#181818" points="301.5,1520.1289,305.5,1530.1289,309.5,1520.1289,305.5,1524.1289" style="stroke:#181818;stroke-width:1.0;"/><line style="stroke:#181818;stroke-width:1.0;" x1="157.5" x2="107.5" y1="1323.9766" y2="1323.9766"/><line style="stroke:#181818;stroke-width:1.0;" x1="107.5" x2="107.5" y1="1323.9766" y2="1345.9766"/><polygon fill="#181818" points="103.5,1335.9766,107.5,1345.9766,111.5,1335.9766,107.5,1339.9766" style="stroke:#181818;stroke-width:1.0;"/><line style="stroke:#181818;stroke-width:1.0;" x1="255.5" x2="305.5" y1="1323.9766" y2="1323.9766"/><line style="stroke:#181818;stroke-width:1.0;" x1="305.5" x2="305.5" y1="1323.9766" y2="1345.9766"/><polygon fill="#181818" points="301.5,1335.9766,305.5,1345.9766,309.5,1335.9766,305.5,1339.9766" style="stroke:#181818;stroke-width:1.0;"/><line style="stroke:#181818;stroke-width:1.0;" x1="107.5" x2="107.5" y1="1554.1289" y2="1572.1289"/><line style="stroke:#181818;stroke-width:1.0;" x1="107.5" x2="194.5" y1="1572.1289" y2="1572.1289"/><polygon fill="#181818" points="184.5,1568.1289,194.5,1572.1289,184.5,1576.1289,188.5,1572.1289" style="stroke:#181818;stroke-width:1.0;"/><line style="stroke:#181818;stroke-width:1.0;" x1="305.5" x2="305.5" y1="1554.1289" y2="1572.1289"/><line style="stroke:#181818;stroke-width:1.0;" x1="305.5" x2="218.5" y1="1572.1289" y2="1572.1289"/><polygon fill="#181818" points="228.5,1568.1289,218.5,1572.1289,228.5,1576.1289,224.5,1572.1289" style="stroke:#181818;stroke-width:1.0;"/><line style="stroke:#181818;stroke-width:1.0;" x1="206.5" x2="206.5" y1="1287.0586" y2="1311.9766"/><polygon fill="#181818" points="202.5,1301.9766,206.5,1311.9766,210.5,1301.9766,206.5,1305.9766" style="stroke:#181818;stroke-width:1.0;"/><line style="stroke:#181818;stroke-width:1.0;" x1="247.5" x2="419" y1="1275.0586" y2="1275.0586"/><polygon fill="#181818" points="415,1443.0352,419,1453.0352,423,1443.0352,419,1447.0352" style="stroke:#181818;stroke-width:1.0;"/><line style="stroke:#181818;stroke-width:1.0;" x1="419" x2="419" y1="1275.0586" y2="1616.1289"/><line style="stroke:#181818;stroke-width:1.0;" x1="419" x2="218.5" y1="1616.1289" y2="1616.1289"/><polygon fill="#181818" points="228.5,1612.1289,218.5,1616.1289,228.5,1620.1289,224.5,1616.1289" style="stroke:#181818;stroke-width:1.0;"/><line style="stroke:#181818;stroke-width:1.0;" x1="206.5" x2="206.5" y1="1584.1289" y2="1604.1289"/><polygon fill="#181818" points="202.5,1594.1289,206.5,1604.1289,210.5,1594.1289,206.5,1598.1289" style="stroke:#181818;stroke-width:1.0;"/><line style="stroke:#181818;stroke-width:1.0;" x1="206.5" x2="206.5" y1="1243.0586" y2="1263.0586"/><polygon fill="#181818" points="202.5,1253.0586,206.5,1263.0586,210.5,1253.0586,206.5,1257.0586" style="stroke:#181818;stroke-width:1.0;"/><line style="stroke:#181818;stroke-width:1.0;" x1="206.5" x2="206.5" y1="1796.1523" y2="1826.1055"/><polygon fill="#181818" points="202.5,1816.1055,206.5,1826.1055,210.5,1816.1055,206.5,1820.1055" style="stroke:#181818;stroke-width:1.0;"/><line style="stroke:#181818;stroke-width:1.0;" x1="206.5" x2="206.5" y1="1721.0469" y2="1745.9648"/><polygon fill="#181818" points="202.5,1735.9648,206.5,1745.9648,210.5,1735.9648,206.5,1739.9648" style="stroke:#181818;stroke-width:1.0;"/><line style="stroke:#181818;stroke-width:1.0;" x1="287" x2="299" y1="1709.0469" y2="1709.0469"/><polygon fill="#181818" points="295,1796.1055,299,1806.1055,303,1796.1055,299,1800.1055" style="stroke:#181818;stroke-width:1.0;"/><line style="stroke:#181818;stroke-width:1.0;" x1="299" x2="299" y1="1709.0469" y2="1893.1992"/><line style="stroke:#181818;stroke-width:1.0;" x1="299" x2="218.5" y1="1893.1992" y2="1893.1992"/><polygon fill="#181818" points="228.5,1889.1992,218.5,1893.1992,228.5,1897.1992,224.5,1893.1992" style="stroke:#181818;stroke-width:1.0;"/><line style="stroke:#181818;stroke-width:1.0;" x1="206.5" x2="206.5" y1="1861.1992" y2="1881.1992"/><polygon fill="#181818" points="202.5,1871.1992,206.5,1881.1992,210.5,1871.1992,206.5,1875.1992" style="stroke:#181818;stroke-width:1.0;"/><line style="stroke:#181818;stroke-width:1.0;" x1="206.5" x2="206.5" y1="1672.1289" y2="1697.0469"/><polygon fill="#181818" points="202.5,1687.0469,206.5,1697.0469,210.5,1687.0469,206.5,1691.0469" style="stroke:#181818;stroke-width:1.0;"/><line style="stroke:#181818;stroke-width:1.0;" x1="252" x2="309" y1="1660.1289" y2="1660.1289"/><polygon fill="#181818" points="305,1796.1055,309,1806.1055,313,1796.1055,309,1800.1055" style="stroke:#181818;stroke-width:1.0;"/><line style="stroke:#181818;stroke-width:1.0;" x1="309" x2="309" y1="1660.1289" y2="1937.1992"/><line style="stroke:#181818;stroke-width:1.0;" x1="309" x2="218.5" y1="1937.1992" y2="1937.1992"/><polygon fill="#181818" points="228.5,1933.1992,218.5,1937.1992,228.5,1941.1992,224.5,1937.1992" style="stroke:#181818;stroke-width:1.0;"/><line style="stroke:#181818;stroke-width:1.0;" x1="206.5" x2="206.5" y1="1905.1992" y2="1925.1992"/><polygon fill="#181818" points="202.5,1915.1992,206.5,1925.1992,210.5,1915.1992,206.5,1919.1992" style="stroke:#181818;stroke-width:1.0;"/><line style="stroke:#181818;stroke-width:1.0;" x1="206.5" x2="206.5" y1="1628.1289" y2="1648.1289"/><polygon fill="#181818" points="202.5,1638.1289,206.5,1648.1289,210.5,1638.1289,206.5,1642.1289" style="stroke:#181818;stroke-width:1.0;"/><line style="stroke:#181818;stroke-width:1.0;" x1="206.5" x2="206.5" y1="641.6172" y2="713.8359"/><polygon fill="#181818" points="202.5,703.8359,206.5,713.8359,210.5,703.8359,206.5,707.8359" style="stroke:#181818;stroke-width:1.0;"/><line style="stroke:#181818;stroke-width:1.0;" x1="206.5" x2="206.5" y1="1949.1992" y2="1981.1992"/><polygon fill="#181818" points="202.5,1971.1992,206.5,1981.1992,210.5,1971.1992,206.5,1975.1992" style="stroke:#181818;stroke-width:1.0;"/><line style="stroke:#181818;stroke-width:1.0;" x1="206.5" x2="206.5" y1="2031.3867" y2="2051.3867"/><polygon fill="#181818" points="202.5,2041.3867,206.5,2051.3867,210.5,2041.3867,206.5,2045.3867" style="stroke:#181818;stroke-width:1.0;"/><!--SRC=[pLPRJnj757xVNp7Aq_eXaNd82nQ9MameBPTM9dsjNB49gowsnQvJHL4bxmvWczZOJRW4EubZHC5003SGuXg8Vynuzl8lEhEpjdTjBgcKHl7JUiyvSxxlcpFVh28gaW2aQ3J6-y1DW60PQPi87Y6uX-0PWciukMNa5yoT8-Euod6o4fvLEAv_xFQjU6mgh0YyZqFm9T8QfCPOFD7dd-h5Otsr6k2u64aL5J4Q0JSGJDBLj0REBLd51GHNaBPjlwdV04yuG7xzRBrlHuV8alG5UT9hExY-vIfUQpRA0JiQYIe2c1KVJYlsN_fZ695wgByj8rYmQshjA4fakb0u-Oaipcd6_BQTAKIcxANjFsvSGuFt7LpaoNnVDSkPhmBNy7Wev02ZZytph75-WE2flgxXrEcNHEP19Oj3al0eJ7U_XIuqebVMhRqNEBUAFwvTYkac-6voyaSyjuldKwwNUFDlVMMDiBB38O3KcZr5E_QKabdD8mYHTkWkiHirQmJj8IaaDAb2545z2wTsZENAvGI-aSZengU4Ut6vGu6Lcg-pE9yQ-k5UQz0l9T8yNx8I9TPwPEo-bIuQnMEy-8Qyf6EjFSF9hF4-xweW8ZKRh_ICQcuTwRMtI2M798tWBgKAK_hYdpXrqfN-pwfLt60zyDa74iSBMGJtNMgq2VxXEPDckM9irXc9haCO5EMO57xiq1uT31hBfzQhZMi9jvs006VB8xXXRr0Qfv9wiU7ArPV-CauAr3AEL9Rh2dOTi9wulTqaKaMG3C2AdiiHX5UHnGS5_MK99-juiSWS3V0KAlMw4WMiLQbq7yk-bXJY0y3FY98aohOnAh-4X5anB84x0w3Fx_VFo7TzG9aM8e1_BCY-DZP7GPOy4LTYSONlH0T3F-Fp3NoMepkhVQ0xgn61zXYmG6ULThi1q0B1ee8a2u2FH7qjjkA3ZYTGpACJmyCZuyCNe-ib5RoEa9jKS3JwaFU6Ga6aiPiYJOuauMTMNbYPTm5llTsecqel7I-bQwcE_JGv6OlBqvTp_Jqw-viYpWXWO03utMdzpeZXTDRBfqSXsgIbqPKYkOIYDNnlzFlGnBYLK8aZ0xxFRsm_irQVMuLbNw1t7QVlHP9TB9jN8dTEYsgpjlyVg7v6flyxqK-VcF3Chw8GKQuU6eycfEAJThzrRx06NPAqZOnfqdCuQ9FFSJg8v_LF2TIv-_pqkypvX3Dt6_hACVaYwpBjTWAvEuoJTMh7XJcaxk634dLVbLol6PHGxLoSdsE-INBDoZxnKoUkbjZc4aVpr6bFkSxDAYlH6FSl]--></g></svg>